
<svg width="395" height="242" viewBox="0 0 495 342" fill="none" xmlns="http://www.w3.org/2000/svg">
<rect x="70" y="178" width="15" height="25" fill="black"/>
<path d="M269 121.5L343 130L375 156V167V185L343 213L269 221V121.5Z" fill="#C1C1C1"/>
<rect x="94" y="130" width="190" height="83" fill="#C1C1C1"/>
<path d="M132.502 342H165.148L277 213H84L112.915 320.231L132.502 342Z" fill="#D9D9D9"/>
<path d="M132.502 1H165.148L277 130H84L112.915 22.7687L132.502 1Z" fill="#D9D9D9"/>
<rect x="70" y="144" width="15" height="25" fill="black"/>
<path d="M16.2795 61H49.5845L119 144H49.5845L1 101.947L16.2795 61Z" fill="#D9D9D9"/>
<g filter="url(#filter0_b_0_1)">
<path d="M79.4815 97H112.926L140 137H54L79.4815 97Z" fill="#B0AFAF"/>
</g>
<g filter="url(#filter1_b_0_1)">
<path d="M76 148L84.5 144H187V169H84.5L76 163L84.5 156L76 148Z" fill="#B7B6B6"/>
</g>
<path d="M76 182L84.5 178H187V203H84.5L76 197L84.5 190L76 182Z" fill="#B7B6B6"/>
<path d="M93.5 97.5L114 23" stroke="#7B7B7B" stroke-width="2"/>
<line x1="61.9966" y1="131.985" x2="131.004" y2="132.015" stroke="#8D8D8D"/>
<line x1="61.5794" y1="131.73" x2="79.5794" y2="103.73" stroke="#8D8D8D"/>
<path d="M62 131.5L80 104H111L130.5 131.5H62Z" fill="#8D8D8D"/>
<line x1="79" y1="103.5" x2="111" y2="103.5" stroke="#8D8D8D"/>
<line x1="110.412" y1="102.716" x2="130.412" y2="131.716" stroke="#8D8D8D"/>
<path d="M78.5 97.5L50 62H16.8533L2 102L50 143.5H117.5L112.5 137.5" stroke="#7B7B7B" stroke-width="2"/>
<rect x="69" y="169" width="78" height="9" fill="#D9D9D9"/>
<path d="M16.3164 286H50.5821L122 203H50.5821L4 249.48L16.3164 286Z" fill="#D9D9D9"/>
<g filter="url(#filter2_d_0_1)">
<path d="M81.4815 248H114.926L142 208H56L81.4815 248Z" fill="#B0AFAF"/>
</g>
<g filter="url(#filter3_d_0_1)">
<line y1="-0.5" x2="42.45" y2="-0.5" transform="matrix(-0.259129 -0.965843 -0.965843 0.259129 128 289)" stroke="#C8C8C8"/>
</g>
<path d="M65 214L83 241.5H114L133.5 214H65Z" fill="#8D8D8D"/>
<path d="M82 248.5L50.5 285.5H17.5L5 250L50.5 204H120L117.5 207" stroke="#7B7B7B" stroke-width="2"/>
<path d="M107 289H128" stroke="black"/>
<path d="M54 156.5L70.5 144.809V168.191L54 156.5Z" fill="#D9D9D9"/>
<path d="M54 190L70.5 178.742V201.258L54 190Z" fill="#D9D9D9"/>
<path d="M493.991 171.684C493.991 185.368 426.998 190.25 384.096 193.229C341.193 196.207 335 190.876 335 171.684C335 152.492 346.825 149.544 384.096 151.529C421.366 153.515 493.991 158 493.991 171.684Z" fill="#C1C1C1"/>
<path d="M76 173.5L43 173.5" stroke="#DCDCDC" stroke-width="5"/>
<path d="M359.819 163L391.696 160L425.377 163L435 172.5L425.377 181L391.696 184L359.819 181L352 172.5L359.819 163Z" fill="#474747"/>
<path d="M103 58.5H124" stroke="black"/>
<g filter="url(#filter4_d_0_1)">
<line x1="124.483" y1="58.1296" x2="113.483" y2="99.1296" stroke="#9B9B9B"/>
</g>
<g filter="url(#filter5_d_0_1)">
<line x1="122.485" y1="22.1213" x2="113.485" y2="58.1213" stroke="#9B9B9B"/>
</g>
<g filter="url(#filter6_d_0_1)">
<line x1="135.455" y1="23.3638" x2="132.455" y2="35.3638" stroke="black" stroke-width="3"/>
</g>
<line x1="114.258" y1="22.3291" x2="133.258" y2="1.32909" stroke="#7B7B7B" stroke-width="2"/>
<line x1="133" y1="2" x2="165" y2="2" stroke="#7B7B7B" stroke-width="2"/>
<line x1="164.632" y1="1.45434" x2="268.882" y2="122.239" stroke="#7B7B7B" stroke-width="2"/>
<path d="M164.065 341.301L269 220.5" stroke="#7B7B7B" stroke-width="2"/>
<line x1="132" y1="341" x2="166" y2="341" stroke="#7B7B7B" stroke-width="2"/>
<line x1="115.072" y1="320.899" x2="132.435" y2="340.786" stroke="#7B7B7B" stroke-width="2"/>
<path d="M94.3223 247.12L114.61 321.681" stroke="#7B7B7B" stroke-width="2"/>
<path d="M451 163.5L457 158L474 161L481 163L486.5 165L492 167.5L495 171.5L492 176L488 178L482 180.5L474.5 182.5L459.5 185.5L451 179.5L455 175L451 171L455 167.5L451 163.5Z" fill="#D2D6DA"/>
<g filter="url(#filter7_d_0_1)">
<line y1="-1.5" x2="12.3693" y2="-1.5" transform="matrix(-0.242536 -0.970142 -0.970142 0.242536 137 322)" stroke="black" stroke-width="3"/>
</g>
<line x1="113" y1="22.5" x2="123" y2="22.5" stroke="black"/>
<line x1="115" y1="321.5" x2="125" y2="321.5" stroke="black"/>
<line x1="125.518" y1="322.132" x2="116.518" y2="289.132" stroke="#C8C8C8"/>
<rect x="313" y="175" width="9" height="9" fill="#474747"/>
<rect x="313" y="154" width="9" height="9" fill="#474747"/>
<path d="M266 162.5L282 159V162L266 164V162.5Z" fill="#3F3F48"/>
<path d="M266 173.5L282 177V174L266 172V173.5Z" fill="#3F3F48"/>
<rect x="269" y="167" width="1" height="3" fill="#3F3F48"/>
<rect x="274" y="165" width="1" height="6" fill="#3F3F48"/>
<rect x="279" y="164" width="1" height="9" fill="#3F3F48"/>
<path d="M367.5 151L343 131L269.5 122" stroke="#7B7B7B" stroke-width="2"/>
<path d="M363.5 194L342.5 212L269 221.5" stroke="#7B7B7B" stroke-width="2"/>
<path d="M70 146L55 156.5L70 167.5V146Z" stroke="#B0AFAF"/>
<path d="M70.5 179.5L55 190L70.5 201V179.5Z" stroke="#B0AFAF"/>
<path d="M71.5 145.5V168" stroke="#5A5A5A" stroke-width="2"/>
<path d="M71 179V201.5" stroke="#5A5A5A" stroke-width="2"/>
<defs>
<filter id="filter0_b_0_1" x="50" y="93" width="94" height="48" filterUnits="userSpaceOnUse" color-interpolation-filters="sRGB">
<feFlood flood-opacity="0" result="BackgroundImageFix"/>
<feGaussianBlur in="BackgroundImageFix" stdDeviation="2"/>
<feComposite in2="SourceAlpha" operator="in" result="effect1_backgroundBlur_0_1"/>
<feBlend mode="normal" in="SourceGraphic" in2="effect1_backgroundBlur_0_1" result="shape"/>
</filter>
<filter id="filter1_b_0_1" x="72" y="140" width="119" height="33" filterUnits="userSpaceOnUse" color-interpolation-filters="sRGB">
<feFlood flood-opacity="0" result="BackgroundImageFix"/>
<feGaussianBlur in="BackgroundImageFix" stdDeviation="2"/>
<feComposite in2="SourceAlpha" operator="in" result="effect1_backgroundBlur_0_1"/>
<feBlend mode="normal" in="SourceGraphic" in2="effect1_backgroundBlur_0_1" result="shape"/>
</filter>
<filter id="filter2_d_0_1" x="52" y="208" width="94" height="48" filterUnits="userSpaceOnUse" color-interpolation-filters="sRGB">
<feFlood flood-opacity="0" result="BackgroundImageFix"/>
<feColorMatrix in="SourceAlpha" type="matrix" values="0 0 0 0 0 0 0 0 0 0 0 0 0 0 0 0 0 0 127 0" result="hardAlpha"/>
<feOffset dy="4"/>
<feGaussianBlur stdDeviation="2"/>
<feComposite in2="hardAlpha" operator="out"/>
<feColorMatrix type="matrix" values="0 0 0 0 0 0 0 0 0 0 0 0 0 0 0 0 0 0 0.25 0"/>
<feBlend mode="normal" in2="BackgroundImageFix" result="effect1_dropShadow_0_1"/>
<feBlend mode="normal" in="SourceGraphic" in2="effect1_dropShadow_0_1" result="shape"/>
</filter>
<filter id="filter3_d_0_1" x="113" y="247.741" width="19.9658" height="49.2591" filterUnits="userSpaceOnUse" color-interpolation-filters="sRGB">
<feFlood flood-opacity="0" result="BackgroundImageFix"/>
<feColorMatrix in="SourceAlpha" type="matrix" values="0 0 0 0 0 0 0 0 0 0 0 0 0 0 0 0 0 0 127 0" result="hardAlpha"/>
<feOffset dy="4"/>
<feGaussianBlur stdDeviation="2"/>
<feComposite in2="hardAlpha" operator="out"/>
<feColorMatrix type="matrix" values="0 0 0 0 0 0 0 0 0 0 0 0 0 0 0 0 0 0 0.25 0"/>
<feBlend mode="normal" in2="BackgroundImageFix" result="effect1_dropShadow_0_1"/>
<feBlend mode="normal" in="SourceGraphic" in2="effect1_dropShadow_0_1" result="shape"/>
</filter>
<filter id="filter4_d_0_1" x="109" y="58" width="19.9658" height="49.2591" filterUnits="userSpaceOnUse" color-interpolation-filters="sRGB">
<feFlood flood-opacity="0" result="BackgroundImageFix"/>
<feColorMatrix in="SourceAlpha" type="matrix" values="0 0 0 0 0 0 0 0 0 0 0 0 0 0 0 0 0 0 127 0" result="hardAlpha"/>
<feOffset dy="4"/>
<feGaussianBlur stdDeviation="2"/>
<feComposite in2="hardAlpha" operator="out"/>
<feColorMatrix type="matrix" values="0 0 0 0 0 0 0 0 0 0 0 0 0 0 0 0 0 0 0.25 0"/>
<feBlend mode="normal" in2="BackgroundImageFix" result="effect1_dropShadow_0_1"/>
<feBlend mode="normal" in="SourceGraphic" in2="effect1_dropShadow_0_1" result="shape"/>
</filter>
<filter id="filter5_d_0_1" x="109" y="22" width="17.9701" height="44.2425" filterUnits="userSpaceOnUse" color-interpolation-filters="sRGB">
<feFlood flood-opacity="0" result="BackgroundImageFix"/>
<feColorMatrix in="SourceAlpha" type="matrix" values="0 0 0 0 0 0 0 0 0 0 0 0 0 0 0 0 0 0 127 0" result="hardAlpha"/>
<feOffset dy="4"/>
<feGaussianBlur stdDeviation="2"/>
<feComposite in2="hardAlpha" operator="out"/>
<feColorMatrix type="matrix" values="0 0 0 0 0 0 0 0 0 0 0 0 0 0 0 0 0 0 0.25 0"/>
<feBlend mode="normal" in2="BackgroundImageFix" result="effect1_dropShadow_0_1"/>
<feBlend mode="normal" in="SourceGraphic" in2="effect1_dropShadow_0_1" result="shape"/>
</filter>
<filter id="filter6_d_0_1" x="127" y="23" width="13.9104" height="20.7276" filterUnits="userSpaceOnUse" color-interpolation-filters="sRGB">
<feFlood flood-opacity="0" result="BackgroundImageFix"/>
<feColorMatrix in="SourceAlpha" type="matrix" values="0 0 0 0 0 0 0 0 0 0 0 0 0 0 0 0 0 0 127 0" result="hardAlpha"/>
<feOffset dy="4"/>
<feGaussianBlur stdDeviation="2"/>
<feComposite in2="hardAlpha" operator="out"/>
<feColorMatrix type="matrix" values="0 0 0 0 0 0 0 0 0 0 0 0 0 0 0 0 0 0 0.25 0"/>
<feBlend mode="normal" in2="BackgroundImageFix" result="effect1_dropShadow_0_1"/>
<feBlend mode="normal" in="SourceGraphic" in2="effect1_dropShadow_0_1" result="shape"/>
</filter>
<filter id="filter7_d_0_1" x="130" y="309.272" width="13.9104" height="20.7276" filterUnits="userSpaceOnUse" color-interpolation-filters="sRGB">
<feFlood flood-opacity="0" result="BackgroundImageFix"/>
<feColorMatrix in="SourceAlpha" type="matrix" values="0 0 0 0 0 0 0 0 0 0 0 0 0 0 0 0 0 0 127 0" result="hardAlpha"/>
<feOffset dy="4"/>
<feGaussianBlur stdDeviation="2"/>
<feComposite in2="hardAlpha" operator="out"/>
<feColorMatrix type="matrix" values="0 0 0 0 0 0 0 0 0 0 0 0 0 0 0 0 0 0 0.25 0"/>
<feBlend mode="normal" in2="BackgroundImageFix" result="effect1_dropShadow_0_1"/>
<feBlend mode="normal" in="SourceGraphic" in2="effect1_dropShadow_0_1" result="shape"/>
</filter>
</defs>
</svg>
